<svg xmlns="http://www.w3.org/2000/svg" viewBox="0 0 1080 1080">
<path d="M 872 777 L 871 778 L 866 778 L 865 779 L 862 779 L 861 780 L 858 780 L 857 781 L 855 781 L 854 782 L 852 782 L 851 783 L 850 783 L 849 784 L 848 784 L 847 785 L 846 785 L 845 786 L 844 786 L 843 787 L 842 787 L 841 788 L 840 788 L 838 790 L 837 790 L 836 791 L 835 791 L 832 794 L 831 794 L 824 801 L 823 801 L 823 802 L 817 808 L 817 809 L 814 812 L 814 813 L 812 815 L 812 816 L 810 818 L 810 819 L 809 820 L 809 821 L 808 822 L 808 823 L 807 824 L 807 825 L 806 826 L 806 827 L 805 828 L 805 830 L 804 831 L 804 833 L 803 834 L 803 836 L 802 837 L 802 840 L 801 841 L 801 844 L 800 845 L 800 851 L 799 852 L 799 869 L 800 870 L 800 875 L 801 876 L 801 880 L 802 881 L 802 884 L 803 885 L 803 887 L 804 888 L 804 889 L 805 890 L 805 892 L 806 893 L 806 894 L 807 895 L 807 896 L 808 897 L 808 898 L 809 899 L 809 900 L 810 901 L 810 902 L 811 903 L 811 904 L 813 906 L 813 907 L 815 909 L 815 910 L 818 913 L 818 914 L 828 924 L 829 924 L 833 928 L 834 928 L 836 930 L 837 930 L 839 932 L 840 932 L 841 933 L 842 933 L 843 934 L 844 934 L 845 935 L 846 935 L 847 936 L 848 936 L 849 937 L 850 937 L 851 938 L 853 938 L 854 939 L 856 939 L 857 940 L 859 940 L 860 941 L 863 941 L 864 942 L 868 942 L 869 943 L 876 943 L 877 944 L 888 944 L 889 943 L 896 943 L 897 942 L 901 942 L 902 941 L 905 941 L 906 940 L 908 940 L 909 939 L 911 939 L 912 938 L 914 938 L 915 937 L 916 937 L 917 936 L 918 936 L 919 935 L 920 935 L 921 934 L 922 934 L 923 933 L 924 933 L 925 932 L 926 932 L 928 930 L 929 930 L 931 928 L 932 928 L 935 925 L 936 925 L 947 914 L 947 913 L 950 910 L 950 909 L 952 907 L 952 906 L 954 904 L 954 903 L 956 901 L 956 900 L 957 899 L 957 898 L 958 897 L 958 895 L 959 894 L 959 893 L 960 892 L 960 891 L 961 890 L 961 888 L 962 887 L 962 885 L 963 884 L 963 881 L 964 880 L 964 877 L 965 876 L 965 870 L 966 869 L 966 851 L 965 850 L 965 844 L 964 843 L 964 840 L 963 839 L 963 836 L 962 835 L 962 834 L 961 833 L 961 831 L 960 830 L 960 828 L 959 827 L 959 826 L 958 825 L 958 824 L 957 823 L 957 822 L 956 821 L 956 820 L 955 819 L 955 818 L 953 816 L 953 815 L 952 814 L 952 813 L 949 810 L 949 809 L 943 803 L 943 802 L 941 800 L 940 800 L 934 794 L 933 794 L 930 791 L 929 791 L 927 789 L 926 789 L 925 788 L 924 788 L 923 787 L 922 787 L 921 786 L 920 786 L 919 785 L 918 785 L 917 784 L 916 784 L 915 783 L 914 783 L 913 782 L 911 782 L 910 781 L 908 781 L 907 780 L 904 780 L 903 779 L 900 779 L 899 778 L 894 778 L 893 777 Z" fill="white"/><path d="M 528 259 L 527 260 L 526 260 L 525 261 L 505 261 L 504 262 L 503 262 L 502 263 L 491 263 L 489 265 L 480 265 L 478 267 L 471 267 L 469 269 L 462 269 L 462 270 L 461 271 L 456 271 L 454 273 L 450 273 L 448 275 L 444 275 L 442 277 L 439 277 L 437 279 L 434 279 L 432 281 L 429 281 L 427 283 L 424 283 L 422 285 L 420 285 L 418 287 L 416 287 L 414 289 L 412 289 L 412 290 L 411 291 L 408 291 L 408 292 L 407 293 L 405 293 L 403 295 L 402 295 L 400 297 L 398 297 L 398 298 L 397 299 L 396 299 L 394 301 L 392 301 L 392 302 L 391 303 L 390 303 L 388 305 L 386 305 L 386 306 L 385 307 L 384 307 L 384 308 L 383 309 L 382 309 L 380 311 L 379 311 L 377 313 L 376 313 L 376 314 L 375 315 L 374 315 L 374 316 L 373 317 L 372 317 L 372 318 L 371 319 L 370 319 L 370 320 L 369 321 L 368 321 L 360 329 L 360 330 L 359 331 L 358 331 L 358 332 L 357 333 L 356 333 L 356 334 L 355 335 L 354 335 L 354 336 L 352 338 L 352 339 L 350 341 L 350 342 L 349 343 L 348 343 L 348 344 L 347 345 L 346 345 L 346 347 L 345 348 L 344 348 L 344 350 L 343 351 L 342 351 L 342 353 L 341 354 L 340 354 L 340 356 L 339 357 L 338 357 L 338 359 L 336 361 L 336 363 L 335 364 L 334 364 L 334 366 L 332 368 L 332 370 L 330 372 L 330 375 L 329 376 L 328 376 L 328 379 L 326 381 L 326 384 L 324 386 L 324 390 L 322 392 L 322 396 L 320 398 L 320 403 L 318 405 L 318 412 L 316 414 L 316 424 L 314 426 L 314 471 L 316 473 L 316 487 L 318 489 L 318 496 L 320 498 L 320 505 L 322 507 L 322 512 L 323 512 L 324 513 L 324 517 L 326 519 L 326 522 L 328 524 L 328 527 L 329 527 L 330 528 L 330 531 L 332 533 L 332 535 L 334 537 L 334 538 L 336 540 L 336 542 L 337 542 L 338 543 L 338 545 L 340 547 L 340 548 L 342 550 L 342 551 L 343 551 L 344 552 L 344 554 L 345 554 L 346 555 L 346 556 L 347 556 L 348 557 L 348 558 L 350 560 L 350 561 L 354 565 L 354 566 L 355 566 L 356 567 L 356 568 L 357 568 L 358 569 L 358 570 L 359 570 L 360 571 L 360 572 L 361 572 L 362 573 L 362 574 L 363 574 L 365 576 L 366 576 L 368 578 L 369 578 L 370 579 L 370 580 L 371 580 L 372 581 L 372 582 L 373 582 L 374 583 L 374 584 L 376 584 L 378 586 L 379 586 L 380 587 L 380 588 L 382 588 L 384 590 L 385 590 L 386 591 L 386 592 L 388 592 L 390 594 L 391 594 L 393 596 L 395 596 L 396 597 L 396 598 L 398 598 L 400 600 L 401 600 L 403 602 L 405 602 L 407 604 L 409 604 L 411 606 L 414 606 L 416 608 L 418 608 L 420 610 L 423 610 L 424 611 L 424 612 L 427 612 L 429 614 L 432 614 L 434 616 L 437 616 L 439 618 L 443 618 L 444 619 L 444 620 L 449 620 L 450 621 L 450 622 L 454 622 L 456 624 L 461 624 L 463 626 L 468 626 L 470 628 L 475 628 L 476 629 L 476 630 L 482 630 L 484 632 L 489 632 L 491 634 L 496 634 L 498 636 L 505 636 L 507 638 L 514 638 L 516 640 L 522 640 L 524 642 L 531 642 L 533 644 L 540 644 L 542 646 L 548 646 L 549 647 L 549 648 L 556 648 L 557 649 L 557 650 L 562 650 L 564 652 L 568 652 L 570 654 L 573 654 L 575 656 L 578 656 L 579 657 L 579 658 L 582 658 L 583 659 L 583 660 L 585 660 L 587 662 L 588 662 L 592 666 L 593 666 L 594 667 L 594 668 L 598 672 L 598 674 L 600 676 L 600 678 L 601 679 L 601 680 L 602 681 L 602 687 L 603 688 L 603 695 L 602 696 L 602 702 L 600 704 L 600 707 L 598 709 L 598 710 L 596 712 L 596 713 L 595 714 L 595 715 L 592 718 L 591 718 L 591 719 L 590 720 L 589 720 L 589 721 L 588 722 L 587 722 L 585 724 L 584 724 L 582 726 L 581 726 L 579 728 L 577 728 L 575 730 L 572 730 L 572 731 L 571 732 L 566 732 L 566 733 L 565 734 L 557 734 L 555 736 L 514 736 L 512 734 L 503 734 L 501 732 L 495 732 L 494 731 L 494 730 L 490 730 L 488 728 L 485 728 L 484 727 L 484 726 L 481 726 L 479 724 L 477 724 L 475 722 L 473 722 L 471 720 L 469 720 L 468 719 L 468 718 L 467 718 L 465 716 L 464 716 L 463 715 L 463 714 L 461 714 L 460 713 L 460 712 L 459 712 L 458 711 L 458 710 L 457 710 L 451 704 L 451 703 L 449 701 L 449 700 L 448 700 L 447 699 L 447 698 L 444 695 L 444 694 L 443 694 L 442 693 L 442 692 L 440 690 L 439 690 L 438 689 L 438 688 L 436 688 L 435 687 L 435 686 L 432 686 L 430 684 L 414 684 L 412 686 L 408 686 L 407 687 L 406 687 L 405 688 L 401 688 L 399 690 L 394 690 L 392 692 L 388 692 L 386 694 L 382 694 L 380 696 L 375 696 L 373 698 L 368 698 L 368 699 L 367 700 L 362 700 L 360 702 L 356 702 L 354 704 L 349 704 L 347 706 L 343 706 L 341 708 L 336 708 L 336 709 L 335 710 L 330 710 L 328 712 L 324 712 L 322 714 L 317 714 L 317 715 L 316 716 L 312 716 L 312 717 L 311 718 L 310 718 L 308 720 L 307 720 L 304 723 L 304 724 L 302 726 L 302 727 L 301 728 L 300 728 L 300 731 L 299 732 L 298 732 L 298 738 L 296 740 L 296 743 L 297 744 L 297 745 L 298 746 L 298 752 L 300 754 L 300 756 L 302 758 L 302 761 L 304 763 L 304 766 L 305 766 L 306 767 L 306 770 L 307 770 L 308 771 L 308 773 L 310 775 L 310 776 L 312 778 L 312 780 L 313 780 L 314 781 L 314 783 L 316 785 L 316 786 L 317 786 L 318 787 L 318 789 L 319 789 L 320 790 L 320 792 L 321 792 L 322 793 L 322 794 L 323 794 L 324 795 L 324 797 L 325 797 L 326 798 L 326 800 L 327 800 L 328 801 L 328 802 L 329 802 L 330 803 L 330 804 L 331 804 L 332 805 L 332 806 L 333 806 L 334 807 L 334 808 L 335 808 L 336 809 L 336 810 L 337 810 L 338 811 L 338 812 L 340 814 L 341 814 L 342 815 L 342 816 L 343 816 L 344 817 L 344 818 L 345 818 L 352 825 L 353 825 L 354 826 L 355 826 L 356 827 L 356 828 L 357 828 L 360 831 L 361 831 L 362 832 L 363 832 L 366 835 L 367 835 L 368 836 L 369 836 L 372 839 L 373 839 L 374 840 L 375 840 L 377 842 L 378 842 L 379 843 L 380 843 L 382 845 L 383 845 L 384 846 L 385 846 L 386 847 L 388 847 L 390 849 L 392 849 L 394 851 L 396 851 L 398 853 L 400 853 L 401 854 L 402 854 L 403 855 L 405 855 L 406 856 L 407 856 L 408 857 L 409 857 L 410 858 L 411 858 L 412 859 L 414 859 L 415 860 L 416 860 L 417 861 L 420 861 L 421 862 L 422 862 L 423 863 L 426 863 L 427 864 L 428 864 L 429 865 L 432 865 L 433 866 L 434 866 L 435 867 L 439 867 L 440 868 L 441 868 L 442 869 L 446 869 L 447 870 L 448 870 L 449 871 L 455 871 L 456 872 L 458 872 L 459 873 L 466 873 L 467 874 L 469 874 L 470 875 L 476 875 L 477 876 L 479 876 L 480 877 L 488 877 L 489 878 L 493 878 L 494 879 L 510 879 L 511 880 L 520 880 L 521 881 L 560 881 L 561 880 L 570 880 L 571 879 L 582 879 L 583 878 L 586 878 L 587 877 L 595 877 L 596 876 L 598 876 L 599 875 L 607 875 L 608 874 L 609 874 L 610 873 L 616 873 L 617 872 L 618 872 L 619 871 L 623 871 L 624 870 L 625 870 L 626 869 L 629 869 L 630 868 L 632 868 L 633 867 L 636 867 L 637 866 L 638 866 L 639 865 L 642 865 L 643 864 L 644 864 L 645 863 L 647 863 L 648 862 L 649 862 L 650 861 L 652 861 L 653 860 L 654 860 L 655 859 L 657 859 L 658 858 L 659 858 L 660 857 L 661 857 L 662 856 L 663 856 L 664 855 L 666 855 L 667 854 L 668 854 L 669 853 L 670 853 L 671 852 L 672 852 L 673 851 L 674 851 L 676 849 L 677 849 L 678 848 L 679 848 L 680 847 L 681 847 L 683 845 L 684 845 L 685 844 L 686 844 L 688 842 L 689 842 L 690 841 L 691 841 L 694 838 L 695 838 L 696 837 L 697 837 L 700 834 L 701 834 L 703 832 L 704 832 L 708 828 L 709 828 L 712 825 L 713 825 L 722 816 L 723 816 L 723 815 L 724 814 L 725 814 L 725 813 L 726 812 L 727 812 L 727 811 L 728 810 L 729 810 L 729 809 L 735 803 L 735 802 L 737 800 L 737 799 L 738 798 L 739 798 L 739 797 L 740 796 L 741 796 L 741 795 L 743 793 L 743 792 L 745 790 L 745 789 L 746 788 L 747 788 L 747 786 L 749 784 L 749 783 L 751 781 L 751 779 L 752 778 L 753 778 L 753 776 L 755 774 L 755 773 L 756 772 L 757 772 L 757 769 L 758 768 L 759 768 L 759 765 L 760 764 L 761 764 L 761 761 L 763 759 L 763 756 L 765 754 L 765 751 L 766 750 L 767 750 L 767 746 L 769 744 L 769 739 L 770 738 L 771 738 L 771 732 L 773 730 L 773 724 L 775 722 L 775 712 L 777 710 L 777 666 L 775 664 L 775 652 L 773 650 L 773 642 L 771 640 L 771 634 L 770 634 L 769 633 L 769 628 L 768 628 L 767 627 L 767 623 L 765 621 L 765 618 L 764 618 L 763 617 L 763 614 L 761 612 L 761 610 L 759 608 L 759 606 L 758 606 L 757 605 L 757 603 L 755 601 L 755 600 L 754 600 L 753 599 L 753 597 L 751 595 L 751 594 L 750 594 L 749 593 L 749 592 L 747 590 L 747 589 L 745 587 L 745 586 L 744 586 L 743 585 L 743 584 L 742 584 L 741 583 L 741 582 L 740 582 L 739 581 L 739 580 L 738 580 L 737 579 L 737 578 L 736 578 L 735 577 L 735 576 L 734 576 L 727 569 L 726 569 L 721 564 L 720 564 L 717 561 L 716 561 L 715 560 L 714 560 L 711 557 L 710 557 L 709 556 L 708 556 L 705 553 L 704 553 L 703 552 L 702 552 L 701 551 L 700 551 L 698 549 L 697 549 L 696 548 L 695 548 L 694 547 L 693 547 L 691 545 L 689 545 L 687 543 L 686 543 L 685 542 L 684 542 L 683 541 L 682 541 L 681 540 L 680 540 L 679 539 L 678 539 L 677 538 L 676 538 L 675 537 L 674 537 L 673 536 L 672 536 L 671 535 L 669 535 L 667 533 L 665 533 L 664 532 L 663 532 L 662 531 L 660 531 L 659 530 L 658 530 L 657 529 L 655 529 L 654 528 L 653 528 L 652 527 L 650 527 L 649 526 L 648 526 L 647 525 L 645 525 L 644 524 L 643 524 L 642 523 L 639 523 L 637 521 L 634 521 L 633 520 L 632 520 L 631 519 L 628 519 L 627 518 L 626 518 L 625 517 L 622 517 L 621 516 L 620 516 L 619 515 L 616 515 L 615 514 L 614 514 L 613 513 L 609 513 L 607 511 L 603 511 L 602 510 L 601 510 L 600 509 L 596 509 L 594 507 L 590 507 L 589 506 L 588 506 L 587 505 L 583 505 L 582 504 L 581 504 L 580 503 L 576 503 L 575 502 L 574 502 L 573 501 L 567 501 L 566 500 L 565 500 L 564 499 L 560 499 L 559 498 L 558 498 L 557 497 L 552 497 L 551 496 L 550 496 L 549 495 L 543 495 L 542 494 L 541 494 L 540 493 L 535 493 L 534 492 L 533 492 L 532 491 L 527 491 L 525 489 L 521 489 L 519 487 L 515 487 L 513 485 L 511 485 L 509 483 L 507 483 L 506 482 L 505 482 L 504 481 L 502 481 L 500 479 L 499 479 L 497 477 L 496 477 L 494 475 L 493 475 L 487 469 L 487 468 L 485 466 L 485 465 L 483 463 L 483 460 L 482 459 L 482 458 L 481 457 L 481 440 L 482 439 L 482 438 L 483 437 L 483 435 L 484 434 L 484 433 L 485 432 L 485 431 L 487 429 L 487 428 L 497 418 L 498 418 L 500 416 L 501 416 L 503 414 L 505 414 L 507 412 L 510 412 L 512 410 L 516 410 L 518 408 L 525 408 L 526 407 L 527 407 L 528 406 L 556 406 L 557 407 L 559 407 L 560 408 L 567 408 L 569 410 L 573 410 L 575 412 L 578 412 L 580 414 L 582 414 L 583 415 L 583 416 L 584 416 L 585 417 L 586 417 L 587 418 L 588 418 L 592 422 L 593 422 L 598 427 L 598 428 L 599 428 L 600 429 L 600 430 L 604 434 L 604 435 L 611 442 L 612 442 L 614 444 L 617 444 L 619 446 L 639 446 L 640 445 L 641 445 L 642 444 L 648 444 L 650 442 L 656 442 L 658 440 L 664 440 L 666 438 L 672 438 L 674 436 L 680 436 L 681 435 L 682 435 L 683 434 L 688 434 L 689 433 L 690 433 L 691 432 L 697 432 L 699 430 L 705 430 L 707 428 L 713 428 L 715 426 L 721 426 L 722 425 L 723 425 L 724 424 L 729 424 L 730 423 L 731 423 L 732 422 L 735 422 L 737 420 L 738 420 L 740 418 L 741 418 L 747 412 L 747 411 L 749 409 L 749 408 L 751 406 L 751 403 L 753 401 L 753 389 L 751 387 L 751 383 L 750 383 L 749 382 L 749 379 L 747 377 L 747 375 L 745 373 L 745 371 L 743 369 L 743 367 L 742 367 L 741 366 L 741 363 L 740 363 L 739 362 L 739 360 L 737 358 L 737 357 L 735 355 L 735 353 L 734 353 L 733 352 L 733 351 L 731 349 L 731 347 L 730 347 L 729 346 L 729 345 L 727 343 L 727 342 L 725 340 L 725 339 L 724 339 L 723 338 L 723 337 L 722 337 L 721 336 L 721 335 L 717 331 L 717 330 L 709 322 L 709 321 L 708 321 L 707 320 L 707 319 L 706 319 L 702 315 L 701 315 L 697 311 L 696 311 L 695 310 L 695 309 L 694 309 L 693 308 L 693 307 L 691 307 L 689 305 L 688 305 L 687 304 L 687 303 L 686 303 L 684 301 L 683 301 L 681 299 L 680 299 L 678 297 L 676 297 L 675 296 L 675 295 L 673 295 L 671 293 L 670 293 L 669 292 L 669 291 L 666 291 L 665 290 L 665 289 L 663 289 L 661 287 L 659 287 L 657 285 L 655 285 L 653 283 L 651 283 L 649 281 L 646 281 L 645 280 L 645 279 L 642 279 L 640 277 L 636 277 L 635 276 L 635 275 L 631 275 L 629 273 L 625 273 L 623 271 L 618 271 L 616 269 L 611 269 L 609 267 L 602 267 L 600 265 L 592 265 L 590 263 L 579 263 L 578 262 L 577 262 L 576 261 L 552 261 L 551 260 L 547 260 L 546 259 Z" fill="white"/><path d="M 513 85 L 512 86 L 497 86 L 496 87 L 488 87 L 487 88 L 479 88 L 478 89 L 471 89 L 470 90 L 465 90 L 464 91 L 459 91 L 458 92 L 453 92 L 452 93 L 448 93 L 447 94 L 443 94 L 442 95 L 438 95 L 437 96 L 433 96 L 432 97 L 429 97 L 428 98 L 424 98 L 423 99 L 421 99 L 420 100 L 417 100 L 416 101 L 413 101 L 412 102 L 409 102 L 408 103 L 405 103 L 404 104 L 402 104 L 401 105 L 399 105 L 398 106 L 396 106 L 395 107 L 393 107 L 392 108 L 389 108 L 388 109 L 386 109 L 385 110 L 383 110 L 382 111 L 380 111 L 379 112 L 377 112 L 376 113 L 375 113 L 374 114 L 372 114 L 371 115 L 369 115 L 368 116 L 367 116 L 366 117 L 364 117 L 363 118 L 361 118 L 360 119 L 359 119 L 358 120 L 356 120 L 355 121 L 354 121 L 353 122 L 351 122 L 350 123 L 349 123 L 348 124 L 347 124 L 346 125 L 344 125 L 343 126 L 342 126 L 341 127 L 340 127 L 339 128 L 337 128 L 336 129 L 335 129 L 334 130 L 333 130 L 332 131 L 331 131 L 330 132 L 329 132 L 328 133 L 327 133 L 326 134 L 325 134 L 324 135 L 323 135 L 322 136 L 321 136 L 320 137 L 319 137 L 318 138 L 317 138 L 316 139 L 315 139 L 314 140 L 313 140 L 312 141 L 311 141 L 310 142 L 309 142 L 307 144 L 306 144 L 305 145 L 304 145 L 303 146 L 302 146 L 301 147 L 300 147 L 299 148 L 298 148 L 296 150 L 295 150 L 294 151 L 293 151 L 291 153 L 290 153 L 289 154 L 288 154 L 286 156 L 285 156 L 284 157 L 283 157 L 281 159 L 280 159 L 279 160 L 278 160 L 276 162 L 275 162 L 273 164 L 272 164 L 270 166 L 269 166 L 267 168 L 266 168 L 264 170 L 263 170 L 261 172 L 260 172 L 257 175 L 256 175 L 254 177 L 253 177 L 250 180 L 249 180 L 246 183 L 245 183 L 242 186 L 241 186 L 238 189 L 237 189 L 232 194 L 231 194 L 226 199 L 225 199 L 220 204 L 219 204 L 210 213 L 209 213 L 180 242 L 180 243 L 172 251 L 172 252 L 165 259 L 165 260 L 161 264 L 161 265 L 157 269 L 157 270 L 153 274 L 153 275 L 150 278 L 150 279 L 147 282 L 147 283 L 145 285 L 145 286 L 142 289 L 142 290 L 140 292 L 140 293 L 137 296 L 137 297 L 135 299 L 135 300 L 133 302 L 133 303 L 131 305 L 131 306 L 129 308 L 129 309 L 128 310 L 128 311 L 126 313 L 126 314 L 124 316 L 124 317 L 122 319 L 122 320 L 121 321 L 121 322 L 119 324 L 119 325 L 118 326 L 118 327 L 117 328 L 117 329 L 115 331 L 115 332 L 114 333 L 114 334 L 113 335 L 113 336 L 111 338 L 111 339 L 110 340 L 110 341 L 109 342 L 109 343 L 108 344 L 108 345 L 107 346 L 107 347 L 106 348 L 106 349 L 105 350 L 105 351 L 104 352 L 104 353 L 103 354 L 103 355 L 102 356 L 102 357 L 101 358 L 101 359 L 100 360 L 100 361 L 99 362 L 99 363 L 98 364 L 98 365 L 97 366 L 97 367 L 96 368 L 96 369 L 95 370 L 95 372 L 94 373 L 94 374 L 93 375 L 93 376 L 92 377 L 92 378 L 91 379 L 91 381 L 90 382 L 90 383 L 89 384 L 89 385 L 88 386 L 88 388 L 87 389 L 87 390 L 86 391 L 86 393 L 85 394 L 85 396 L 84 397 L 84 398 L 83 399 L 83 401 L 82 402 L 82 403 L 81 404 L 81 406 L 80 407 L 80 409 L 79 410 L 79 412 L 78 413 L 78 415 L 77 416 L 77 418 L 76 419 L 76 421 L 75 422 L 75 424 L 74 425 L 74 427 L 73 428 L 73 430 L 72 431 L 72 433 L 71 434 L 71 437 L 70 438 L 70 441 L 69 442 L 69 444 L 68 445 L 68 448 L 67 449 L 67 451 L 66 452 L 66 456 L 65 457 L 65 460 L 64 461 L 64 464 L 63 465 L 63 469 L 62 470 L 62 473 L 61 474 L 61 478 L 60 479 L 60 484 L 59 485 L 59 490 L 58 491 L 58 495 L 57 496 L 57 502 L 56 503 L 56 510 L 55 511 L 55 518 L 54 519 L 54 528 L 53 529 L 53 541 L 52 542 L 52 566 L 51 567 L 51 574 L 52 575 L 52 603 L 53 604 L 53 617 L 54 618 L 54 626 L 55 627 L 55 635 L 56 636 L 56 642 L 57 643 L 57 648 L 58 649 L 58 654 L 59 655 L 59 661 L 60 662 L 60 666 L 61 667 L 61 670 L 62 671 L 62 675 L 63 676 L 63 680 L 64 681 L 64 685 L 65 686 L 65 688 L 66 689 L 66 692 L 67 693 L 67 696 L 68 697 L 68 700 L 69 701 L 69 704 L 70 705 L 70 708 L 71 709 L 71 711 L 72 712 L 72 714 L 73 715 L 73 717 L 74 718 L 74 720 L 75 721 L 75 724 L 76 725 L 76 727 L 77 728 L 77 730 L 78 731 L 78 733 L 79 734 L 79 735 L 80 736 L 80 738 L 81 739 L 81 741 L 82 742 L 82 744 L 83 745 L 83 746 L 84 747 L 84 749 L 85 750 L 85 752 L 86 753 L 86 754 L 87 755 L 87 756 L 88 757 L 88 759 L 89 760 L 89 761 L 90 762 L 90 764 L 91 765 L 91 766 L 92 767 L 92 768 L 93 769 L 93 771 L 94 772 L 94 773 L 95 774 L 95 775 L 96 776 L 96 777 L 97 778 L 97 779 L 98 780 L 98 781 L 99 782 L 99 783 L 100 784 L 100 786 L 101 787 L 101 788 L 102 789 L 102 790 L 103 791 L 103 792 L 104 793 L 104 794 L 105 795 L 105 796 L 106 797 L 106 798 L 107 799 L 107 800 L 109 802 L 109 803 L 110 804 L 110 805 L 111 806 L 111 807 L 112 808 L 112 809 L 113 810 L 113 811 L 115 813 L 115 814 L 116 815 L 116 816 L 117 817 L 117 818 L 119 820 L 119 821 L 120 822 L 120 823 L 122 825 L 122 826 L 123 827 L 123 828 L 125 830 L 125 831 L 127 833 L 127 834 L 128 835 L 128 836 L 130 838 L 130 839 L 132 841 L 132 842 L 134 844 L 134 845 L 136 847 L 136 848 L 138 850 L 138 851 L 140 853 L 140 854 L 143 857 L 143 858 L 146 861 L 146 862 L 149 865 L 149 866 L 152 869 L 152 870 L 155 873 L 155 874 L 158 877 L 158 878 L 164 884 L 164 885 L 169 890 L 169 891 L 175 897 L 175 898 L 188 911 L 188 912 L 195 919 L 196 919 L 213 936 L 214 936 L 221 943 L 222 943 L 228 949 L 229 949 L 232 952 L 233 952 L 237 956 L 238 956 L 242 960 L 243 960 L 247 964 L 248 964 L 250 966 L 251 966 L 254 969 L 255 969 L 257 971 L 258 971 L 260 973 L 261 973 L 263 975 L 264 975 L 267 978 L 268 978 L 270 980 L 271 980 L 273 982 L 274 982 L 276 984 L 277 984 L 278 985 L 279 985 L 281 987 L 282 987 L 283 988 L 284 988 L 286 990 L 287 990 L 289 992 L 290 992 L 291 993 L 292 993 L 294 995 L 295 995 L 296 996 L 297 996 L 298 997 L 299 997 L 300 998 L 301 998 L 303 1000 L 304 1000 L 305 1001 L 306 1001 L 307 1002 L 308 1002 L 309 1003 L 310 1003 L 311 1004 L 312 1004 L 313 1005 L 314 1005 L 316 1007 L 317 1007 L 318 1008 L 319 1008 L 320 1009 L 321 1009 L 322 1010 L 323 1010 L 324 1011 L 325 1011 L 326 1012 L 328 1012 L 329 1013 L 330 1013 L 331 1014 L 332 1014 L 333 1015 L 334 1015 L 335 1016 L 336 1016 L 337 1017 L 338 1017 L 339 1018 L 340 1018 L 341 1019 L 343 1019 L 344 1020 L 345 1020 L 346 1021 L 347 1021 L 348 1022 L 350 1022 L 351 1023 L 352 1023 L 353 1024 L 355 1024 L 356 1025 L 357 1025 L 358 1026 L 360 1026 L 361 1027 L 362 1027 L 363 1028 L 365 1028 L 366 1029 L 367 1029 L 368 1030 L 370 1030 L 371 1031 L 372 1031 L 373 1032 L 375 1032 L 376 1033 L 378 1033 L 379 1034 L 381 1034 L 382 1035 L 384 1035 L 385 1036 L 387 1036 L 388 1037 L 391 1037 L 392 1038 L 394 1038 L 395 1039 L 397 1039 L 398 1040 L 400 1040 L 401 1041 L 403 1041 L 404 1042 L 407 1042 L 408 1043 L 411 1043 L 412 1044 L 415 1044 L 416 1045 L 418 1045 L 419 1046 L 422 1046 L 423 1047 L 426 1047 L 427 1048 L 432 1048 L 433 1049 L 449 1049 L 450 1048 L 453 1048 L 454 1047 L 458 1047 L 459 1046 L 460 1046 L 461 1045 L 463 1045 L 464 1044 L 465 1044 L 466 1043 L 468 1043 L 470 1041 L 471 1041 L 473 1039 L 474 1039 L 475 1038 L 476 1038 L 484 1030 L 485 1030 L 485 1029 L 488 1026 L 488 1025 L 491 1022 L 491 1021 L 492 1020 L 492 1019 L 493 1018 L 493 1017 L 494 1016 L 494 1015 L 495 1014 L 495 1013 L 496 1012 L 496 1010 L 497 1009 L 497 1007 L 498 1006 L 498 1003 L 499 1002 L 499 996 L 500 995 L 500 985 L 499 984 L 499 977 L 498 976 L 498 974 L 497 973 L 497 971 L 496 970 L 496 968 L 495 967 L 495 966 L 494 965 L 494 964 L 493 963 L 493 962 L 492 961 L 492 960 L 491 959 L 491 958 L 488 955 L 488 954 L 485 951 L 485 950 L 482 947 L 481 947 L 476 942 L 475 942 L 473 940 L 472 940 L 471 939 L 470 939 L 468 937 L 467 937 L 466 936 L 464 936 L 463 935 L 462 935 L 461 934 L 459 934 L 458 933 L 456 933 L 455 932 L 452 932 L 451 931 L 449 931 L 448 930 L 445 930 L 444 929 L 441 929 L 440 928 L 437 928 L 436 927 L 434 927 L 433 926 L 431 926 L 430 925 L 428 925 L 427 924 L 425 924 L 424 923 L 422 923 L 421 922 L 419 922 L 418 921 L 416 921 L 415 920 L 413 920 L 412 919 L 410 919 L 409 918 L 408 918 L 407 917 L 405 917 L 404 916 L 403 916 L 402 915 L 400 915 L 399 914 L 398 914 L 397 913 L 395 913 L 394 912 L 393 912 L 392 911 L 391 911 L 390 910 L 389 910 L 388 909 L 386 909 L 385 908 L 384 908 L 383 907 L 382 907 L 381 906 L 380 906 L 379 905 L 378 905 L 377 904 L 376 904 L 375 903 L 374 903 L 373 902 L 372 902 L 371 901 L 370 901 L 369 900 L 368 900 L 367 899 L 366 899 L 365 898 L 364 898 L 362 896 L 361 896 L 360 895 L 359 895 L 358 894 L 357 894 L 356 893 L 355 893 L 353 891 L 352 891 L 351 890 L 350 890 L 348 888 L 347 888 L 346 887 L 345 887 L 343 885 L 342 885 L 340 883 L 339 883 L 338 882 L 337 882 L 334 879 L 333 879 L 331 877 L 330 877 L 328 875 L 327 875 L 325 873 L 324 873 L 321 870 L 320 870 L 317 867 L 316 867 L 312 863 L 311 863 L 307 859 L 306 859 L 302 855 L 301 855 L 294 848 L 293 848 L 262 817 L 262 816 L 257 811 L 257 810 L 252 805 L 252 804 L 248 800 L 248 799 L 245 796 L 245 795 L 242 792 L 242 791 L 239 788 L 239 787 L 237 785 L 237 784 L 234 781 L 234 780 L 232 778 L 232 777 L 230 775 L 230 774 L 228 772 L 228 771 L 227 770 L 227 769 L 225 767 L 225 766 L 224 765 L 224 764 L 222 762 L 222 761 L 220 759 L 220 758 L 219 757 L 219 756 L 218 755 L 218 754 L 217 753 L 217 752 L 215 750 L 215 749 L 214 748 L 214 747 L 213 746 L 213 745 L 212 744 L 212 743 L 211 742 L 211 741 L 210 740 L 210 739 L 209 738 L 209 737 L 208 736 L 208 735 L 207 734 L 207 733 L 206 732 L 206 731 L 205 730 L 205 729 L 204 728 L 204 727 L 203 726 L 203 725 L 202 724 L 202 722 L 201 721 L 201 720 L 200 719 L 200 718 L 199 717 L 199 715 L 198 714 L 198 713 L 197 712 L 197 710 L 196 709 L 196 708 L 195 707 L 195 705 L 194 704 L 194 703 L 193 702 L 193 700 L 192 699 L 192 697 L 191 696 L 191 694 L 190 693 L 190 692 L 189 691 L 189 688 L 188 687 L 188 685 L 187 684 L 187 682 L 186 681 L 186 679 L 185 678 L 185 676 L 184 675 L 184 672 L 183 671 L 183 668 L 182 667 L 182 664 L 181 663 L 181 660 L 180 659 L 180 656 L 179 655 L 179 651 L 178 650 L 178 647 L 177 646 L 177 642 L 176 641 L 176 636 L 175 635 L 175 630 L 174 629 L 174 623 L 173 622 L 173 615 L 172 614 L 172 606 L 171 605 L 171 590 L 170 589 L 170 556 L 171 555 L 171 541 L 172 540 L 172 531 L 173 530 L 173 523 L 174 522 L 174 516 L 175 515 L 175 510 L 176 509 L 176 505 L 177 504 L 177 499 L 178 498 L 178 495 L 179 494 L 179 490 L 180 489 L 180 486 L 181 485 L 181 482 L 182 481 L 182 478 L 183 477 L 183 475 L 184 474 L 184 471 L 185 470 L 185 467 L 186 466 L 186 464 L 187 463 L 187 461 L 188 460 L 188 458 L 189 457 L 189 455 L 190 454 L 190 452 L 191 451 L 191 449 L 192 448 L 192 446 L 193 445 L 193 444 L 194 443 L 194 441 L 195 440 L 195 439 L 196 438 L 196 436 L 197 435 L 197 433 L 198 432 L 198 431 L 199 430 L 199 429 L 200 428 L 200 426 L 201 425 L 201 424 L 202 423 L 202 422 L 203 421 L 203 420 L 204 419 L 204 417 L 205 416 L 205 415 L 206 414 L 206 413 L 207 412 L 207 411 L 208 410 L 208 409 L 209 408 L 209 407 L 210 406 L 210 405 L 211 404 L 211 403 L 212 402 L 212 401 L 213 400 L 213 399 L 215 397 L 215 396 L 216 395 L 216 394 L 217 393 L 217 392 L 219 390 L 219 389 L 220 388 L 220 387 L 221 386 L 221 385 L 223 383 L 223 382 L 224 381 L 224 380 L 226 378 L 226 377 L 228 375 L 228 374 L 230 372 L 230 371 L 231 370 L 231 369 L 233 367 L 233 366 L 236 363 L 236 362 L 238 360 L 238 359 L 241 356 L 241 355 L 243 353 L 243 352 L 246 349 L 246 348 L 250 344 L 250 343 L 254 339 L 254 338 L 260 332 L 260 331 L 267 324 L 267 323 L 289 301 L 290 301 L 299 292 L 300 292 L 305 287 L 306 287 L 311 282 L 312 282 L 315 279 L 316 279 L 319 276 L 320 276 L 323 273 L 324 273 L 326 271 L 327 271 L 329 269 L 330 269 L 333 266 L 334 266 L 336 264 L 337 264 L 339 262 L 340 262 L 341 261 L 342 261 L 344 259 L 345 259 L 347 257 L 348 257 L 349 256 L 350 256 L 352 254 L 353 254 L 354 253 L 355 253 L 357 251 L 358 251 L 359 250 L 360 250 L 361 249 L 362 249 L 363 248 L 364 248 L 365 247 L 366 247 L 368 245 L 369 245 L 370 244 L 371 244 L 372 243 L 373 243 L 374 242 L 375 242 L 376 241 L 377 241 L 378 240 L 380 240 L 381 239 L 382 239 L 383 238 L 384 238 L 385 237 L 386 237 L 387 236 L 388 236 L 389 235 L 390 235 L 391 234 L 393 234 L 394 233 L 395 233 L 396 232 L 397 232 L 398 231 L 400 231 L 401 230 L 402 230 L 403 229 L 405 229 L 406 228 L 408 228 L 409 227 L 410 227 L 411 226 L 413 226 L 414 225 L 416 225 L 417 224 L 418 224 L 419 223 L 421 223 L 422 222 L 425 222 L 426 221 L 428 221 L 429 220 L 431 220 L 432 219 L 434 219 L 435 218 L 437 218 L 438 217 L 441 217 L 442 216 L 445 216 L 446 215 L 449 215 L 450 214 L 453 214 L 454 213 L 457 213 L 458 212 L 462 212 L 463 211 L 467 211 L 468 210 L 471 210 L 472 209 L 478 209 L 479 208 L 484 208 L 485 207 L 491 207 L 492 206 L 499 206 L 500 205 L 510 205 L 511 204 L 528 204 L 529 203 L 549 203 L 550 204 L 568 204 L 569 205 L 580 205 L 581 206 L 587 206 L 588 207 L 595 207 L 596 208 L 601 208 L 602 209 L 606 209 L 607 210 L 612 210 L 613 211 L 617 211 L 618 212 L 621 212 L 622 213 L 625 213 L 626 214 L 630 214 L 631 215 L 633 215 L 634 216 L 637 216 L 638 217 L 641 217 L 642 218 L 644 218 L 645 219 L 648 219 L 649 220 L 651 220 L 652 221 L 654 221 L 655 222 L 657 222 L 658 223 L 660 223 L 661 224 L 663 224 L 664 225 L 665 225 L 666 226 L 668 226 L 669 227 L 671 227 L 672 228 L 673 228 L 674 229 L 676 229 L 677 230 L 678 230 L 679 231 L 681 231 L 682 232 L 683 232 L 684 233 L 685 233 L 686 234 L 688 234 L 689 235 L 690 235 L 691 236 L 692 236 L 693 237 L 694 237 L 695 238 L 697 238 L 698 239 L 699 239 L 700 240 L 701 240 L 702 241 L 703 241 L 704 242 L 705 242 L 707 244 L 708 244 L 709 245 L 710 245 L 711 246 L 712 246 L 713 247 L 714 247 L 715 248 L 716 248 L 717 249 L 718 249 L 719 250 L 720 250 L 722 252 L 723 252 L 724 253 L 725 253 L 726 254 L 727 254 L 729 256 L 730 256 L 731 257 L 732 257 L 734 259 L 735 259 L 737 261 L 738 261 L 740 263 L 741 263 L 743 265 L 744 265 L 745 266 L 746 266 L 749 269 L 750 269 L 752 271 L 753 271 L 756 274 L 757 274 L 759 276 L 760 276 L 764 280 L 765 280 L 768 283 L 769 283 L 773 287 L 774 287 L 778 291 L 779 291 L 781 293 L 782 293 L 783 294 L 784 294 L 786 296 L 787 296 L 788 297 L 789 297 L 790 298 L 792 298 L 793 299 L 794 299 L 795 300 L 796 300 L 797 301 L 801 301 L 802 302 L 806 302 L 807 303 L 822 303 L 823 302 L 828 302 L 829 301 L 831 301 L 832 300 L 834 300 L 835 299 L 837 299 L 838 298 L 840 298 L 842 296 L 843 296 L 844 295 L 845 295 L 846 294 L 847 294 L 849 292 L 850 292 L 856 286 L 857 286 L 858 285 L 858 284 L 862 280 L 862 279 L 865 276 L 865 275 L 866 274 L 866 273 L 867 272 L 867 271 L 868 270 L 868 269 L 869 268 L 869 267 L 870 266 L 870 264 L 871 263 L 871 261 L 872 260 L 872 258 L 873 257 L 873 250 L 874 249 L 874 239 L 873 238 L 873 232 L 872 231 L 872 228 L 871 227 L 871 224 L 870 223 L 870 222 L 869 221 L 869 220 L 868 219 L 868 218 L 867 217 L 867 216 L 866 215 L 866 214 L 865 213 L 865 212 L 862 209 L 862 208 L 860 206 L 860 205 L 857 202 L 856 202 L 848 194 L 847 194 L 844 191 L 843 191 L 839 187 L 838 187 L 834 183 L 833 183 L 830 180 L 829 180 L 827 178 L 826 178 L 823 175 L 822 175 L 820 173 L 819 173 L 816 170 L 815 170 L 813 168 L 812 168 L 810 166 L 809 166 L 807 164 L 806 164 L 805 163 L 804 163 L 802 161 L 801 161 L 799 159 L 798 159 L 796 157 L 795 157 L 793 155 L 792 155 L 791 154 L 790 154 L 789 153 L 788 153 L 786 151 L 785 151 L 784 150 L 783 150 L 782 149 L 781 149 L 779 147 L 778 147 L 777 146 L 776 146 L 775 145 L 774 145 L 772 143 L 771 143 L 770 142 L 769 142 L 768 141 L 767 141 L 766 140 L 765 140 L 764 139 L 763 139 L 762 138 L 761 138 L 760 137 L 759 137 L 758 136 L 757 136 L 756 135 L 755 135 L 754 134 L 753 134 L 752 133 L 751 133 L 750 132 L 749 132 L 748 131 L 747 131 L 746 130 L 745 130 L 744 129 L 742 129 L 741 128 L 740 128 L 739 127 L 738 127 L 737 126 L 736 126 L 735 125 L 733 125 L 732 124 L 731 124 L 730 123 L 729 123 L 728 122 L 726 122 L 725 121 L 724 121 L 723 120 L 721 120 L 720 119 L 719 119 L 718 118 L 716 118 L 715 117 L 714 117 L 713 116 L 711 116 L 710 115 L 708 115 L 707 114 L 706 114 L 705 113 L 703 113 L 702 112 L 700 112 L 699 111 L 697 111 L 696 110 L 694 110 L 693 109 L 691 109 L 690 108 L 688 108 L 687 107 L 685 107 L 684 106 L 682 106 L 681 105 L 678 105 L 677 104 L 674 104 L 673 103 L 671 103 L 670 102 L 667 102 L 666 101 L 664 101 L 663 100 L 660 100 L 659 99 L 656 99 L 655 98 L 651 98 L 650 97 L 647 97 L 646 96 L 642 96 L 641 95 L 638 95 L 637 94 L 633 94 L 632 93 L 627 93 L 626 92 L 621 92 L 620 91 L 616 91 L 615 90 L 609 90 L 608 89 L 601 89 L 600 88 L 593 88 L 592 87 L 582 87 L 581 86 L 569 86 L 568 85 Z" fill="white"/>
</svg>